<mxfile host="Electron" modified="2023-05-02T14:34:19.205Z" agent="Mozilla/5.0 (Windows NT 10.0; Win64; x64) AppleWebKit/537.36 (KHTML, like Gecko) draw.io/21.1.2 Chrome/106.0.5249.199 Electron/21.4.3 Safari/537.36" etag="dkypBQbeUvkVwyzpXeUr" version="21.1.2" type="device">
  <diagram name="Page-1" id="E43OPaz_46VywwlLpWJh">
    <mxGraphModel dx="404" dy="257" grid="1" gridSize="3.937" guides="1" tooltips="1" connect="1" arrows="1" fold="1" page="1" pageScale="1" pageWidth="2339" pageHeight="3300" math="0" shadow="0">
      <root>
        <mxCell id="0" />
        <mxCell id="1" parent="0" />
        <mxCell id="1oh20K-x0vfG2mxByIJu-61" value="" style="group" parent="1" vertex="1" connectable="0">
          <mxGeometry x="78.74" y="19.685" width="2240.1559999999986" height="3259.836" as="geometry" />
        </mxCell>
        <mxCell id="1oh20K-x0vfG2mxByIJu-1" value="" style="rounded=0;whiteSpace=wrap;html=1;fillColor=none;strokeWidth=4;" parent="1oh20K-x0vfG2mxByIJu-61" vertex="1">
          <mxGeometry width="2240.153" height="3259.836" as="geometry" />
        </mxCell>
        <mxCell id="1oh20K-x0vfG2mxByIJu-2" value="" style="group" parent="1oh20K-x0vfG2mxByIJu-61" vertex="1" connectable="0">
          <mxGeometry x="1511.7139999999993" y="3043.263999999999" width="728.4419999999991" height="216.57100000000105" as="geometry" />
        </mxCell>
        <mxCell id="1oh20K-x0vfG2mxByIJu-3" value="" style="rounded=0;whiteSpace=wrap;html=1;fillColor=none;container=0;strokeWidth=4;" parent="1oh20K-x0vfG2mxByIJu-2" vertex="1">
          <mxGeometry x="0.08599999999978536" y="0.031000000001085937" width="728.34" height="216.53" as="geometry" />
        </mxCell>
        <mxCell id="1oh20K-x0vfG2mxByIJu-4" value="" style="rounded=0;whiteSpace=wrap;html=1;fillColor=none;container=0;strokeWidth=4;" parent="1oh20K-x0vfG2mxByIJu-2" vertex="1">
          <mxGeometry x="0.026000000000294676" y="0.031000000001085937" width="27.56" height="98.43" as="geometry" />
        </mxCell>
        <mxCell id="1oh20K-x0vfG2mxByIJu-5" value="" style="rounded=0;whiteSpace=wrap;html=1;fillColor=none;container=0;strokeWidth=4;" parent="1oh20K-x0vfG2mxByIJu-2" vertex="1">
          <mxGeometry x="27.576000000000022" y="0.031000000001085937" width="39.37" height="98.42" as="geometry" />
        </mxCell>
        <mxCell id="1oh20K-x0vfG2mxByIJu-6" value="" style="rounded=0;whiteSpace=wrap;html=1;fillColor=none;container=0;strokeWidth=4;" parent="1oh20K-x0vfG2mxByIJu-2" vertex="1">
          <mxGeometry x="66.94599999999991" y="0.031000000001085937" width="90.55" height="216.53" as="geometry" />
        </mxCell>
        <mxCell id="1oh20K-x0vfG2mxByIJu-7" value="" style="rounded=0;whiteSpace=wrap;html=1;fillColor=none;container=0;strokeWidth=4;" parent="1oh20K-x0vfG2mxByIJu-2" vertex="1">
          <mxGeometry x="157.4960000000001" y="0.031000000001085937" width="59.06" height="216.54" as="geometry" />
        </mxCell>
        <mxCell id="1oh20K-x0vfG2mxByIJu-8" value="" style="rounded=0;whiteSpace=wrap;html=1;fillColor=none;container=0;strokeWidth=4;" parent="1oh20K-x0vfG2mxByIJu-2" vertex="1">
          <mxGeometry x="216.54599999999982" y="0.031000000001085937" width="39.37" height="216.54" as="geometry" />
        </mxCell>
        <mxCell id="1oh20K-x0vfG2mxByIJu-9" value="" style="rounded=0;whiteSpace=wrap;html=1;fillColor=none;container=0;strokeWidth=4;" parent="1oh20K-x0vfG2mxByIJu-2" vertex="1">
          <mxGeometry x="255.9159999999997" y="0.031000000001085937" width="275.59" height="216.53" as="geometry" />
        </mxCell>
        <mxCell id="1oh20K-x0vfG2mxByIJu-10" value="" style="rounded=0;whiteSpace=wrap;html=1;fillColor=none;container=0;strokeWidth=4;" parent="1oh20K-x0vfG2mxByIJu-2" vertex="1">
          <mxGeometry x="531.5059999999999" y="0.031000000001085937" width="196.85" height="216.54" as="geometry" />
        </mxCell>
        <mxCell id="1oh20K-x0vfG2mxByIJu-11" value="" style="rounded=0;whiteSpace=wrap;html=1;fillColor=none;container=0;strokeWidth=4;" parent="1oh20K-x0vfG2mxByIJu-2" vertex="1">
          <mxGeometry x="0.005999999999858119" y="0.031000000001085937" width="255.9" height="0.01" as="geometry" />
        </mxCell>
        <mxCell id="1oh20K-x0vfG2mxByIJu-12" value="" style="rounded=0;whiteSpace=wrap;html=1;fillColor=none;container=0;strokeWidth=4;" parent="1oh20K-x0vfG2mxByIJu-2" vertex="1">
          <mxGeometry x="0.01099999999951251" y="0.006000000000312866" width="255.905" height="19.685" as="geometry" />
        </mxCell>
        <mxCell id="1oh20K-x0vfG2mxByIJu-13" value="" style="rounded=0;whiteSpace=wrap;html=1;fillColor=none;container=0;strokeWidth=4;" parent="1oh20K-x0vfG2mxByIJu-2" vertex="1">
          <mxGeometry x="255.9049999999993" width="275.59" height="59.055" as="geometry" />
        </mxCell>
        <mxCell id="1oh20K-x0vfG2mxByIJu-14" value="" style="rounded=0;whiteSpace=wrap;html=1;fillColor=none;container=0;strokeWidth=4;" parent="1oh20K-x0vfG2mxByIJu-2" vertex="1">
          <mxGeometry x="256.00199999999904" y="157.49700000000007" width="275.59" height="59.055" as="geometry" />
        </mxCell>
        <mxCell id="1oh20K-x0vfG2mxByIJu-15" value="" style="rounded=0;whiteSpace=wrap;html=1;fillColor=none;container=0;strokeWidth=4;" parent="1oh20K-x0vfG2mxByIJu-2" vertex="1">
          <mxGeometry x="531.5919999999992" y="0.03699999999980719" width="196.85" height="59.055" as="geometry" />
        </mxCell>
        <mxCell id="1oh20K-x0vfG2mxByIJu-16" value="" style="rounded=0;whiteSpace=wrap;html=1;fillColor=none;container=0;strokeWidth=4;" parent="1oh20K-x0vfG2mxByIJu-2" vertex="1">
          <mxGeometry x="531.4889999999991" y="157.5139999999999" width="196.85" height="59.055" as="geometry" />
        </mxCell>
        <mxCell id="1oh20K-x0vfG2mxByIJu-17" value="" style="rounded=0;whiteSpace=wrap;html=1;fillColor=none;container=0;strokeWidth=4;" parent="1oh20K-x0vfG2mxByIJu-2" vertex="1">
          <mxGeometry x="531.4859999999985" y="59.0509999999997" width="59.055" height="19.685" as="geometry" />
        </mxCell>
        <mxCell id="1oh20K-x0vfG2mxByIJu-18" value="" style="rounded=0;whiteSpace=wrap;html=1;fillColor=none;container=0;strokeWidth=4;" parent="1oh20K-x0vfG2mxByIJu-2" vertex="1">
          <mxGeometry x="590.5429999999983" y="59.04799999999955" width="66.929" height="19.685" as="geometry" />
        </mxCell>
        <mxCell id="1oh20K-x0vfG2mxByIJu-19" value="" style="rounded=0;whiteSpace=wrap;html=1;fillColor=none;container=0;strokeWidth=4;" parent="1oh20K-x0vfG2mxByIJu-2" vertex="1">
          <mxGeometry x="657.4699999999984" y="59.04499999999939" width="70.866" height="19.685" as="geometry" />
        </mxCell>
        <mxCell id="1oh20K-x0vfG2mxByIJu-20" value="" style="rounded=0;whiteSpace=wrap;html=1;fillColor=none;container=0;strokeWidth=4;" parent="1oh20K-x0vfG2mxByIJu-2" vertex="1">
          <mxGeometry x="531.4829999999988" y="78.75799999999958" width="19.685" height="59.055" as="geometry" />
        </mxCell>
        <mxCell id="1oh20K-x0vfG2mxByIJu-21" value="" style="rounded=0;whiteSpace=wrap;html=1;fillColor=none;container=0;strokeWidth=4;" parent="1oh20K-x0vfG2mxByIJu-2" vertex="1">
          <mxGeometry x="551.1659999999997" y="78.77100000000132" width="19.78" height="59.06" as="geometry" />
        </mxCell>
        <mxCell id="1oh20K-x0vfG2mxByIJu-22" value="" style="rounded=0;whiteSpace=wrap;html=1;fillColor=none;container=0;strokeWidth=4;" parent="1oh20K-x0vfG2mxByIJu-2" vertex="1">
          <mxGeometry x="570.8569999999986" y="78.77199999999925" width="19.685" height="59.055" as="geometry" />
        </mxCell>
        <mxCell id="1oh20K-x0vfG2mxByIJu-23" value="" style="rounded=0;whiteSpace=wrap;html=1;fillColor=none;container=0;strokeWidth=4;" parent="1oh20K-x0vfG2mxByIJu-2" vertex="1">
          <mxGeometry x="590.5439999999985" y="78.77899999999931" width="66.929" height="59.055" as="geometry" />
        </mxCell>
        <mxCell id="1oh20K-x0vfG2mxByIJu-24" value="" style="rounded=0;whiteSpace=wrap;html=1;fillColor=none;container=0;strokeWidth=4;" parent="1oh20K-x0vfG2mxByIJu-2" vertex="1">
          <mxGeometry x="657.5709999999985" y="78.75599999999918" width="70.866" height="59.055" as="geometry" />
        </mxCell>
        <mxCell id="1oh20K-x0vfG2mxByIJu-25" value="" style="rounded=0;whiteSpace=wrap;html=1;fillColor=none;container=0;strokeWidth=4;" parent="1oh20K-x0vfG2mxByIJu-2" vertex="1">
          <mxGeometry x="531.487999999998" y="137.8329999999985" width="78.74" height="19.685" as="geometry" />
        </mxCell>
        <mxCell id="1oh20K-x0vfG2mxByIJu-26" value="&lt;i&gt;ГУИР.ХХХХХХ.ХХХХХ&lt;/i&gt;" style="rounded=0;whiteSpace=wrap;html=1;fillColor=none;fontFamily=Times New Roman;fontSize=12;container=0;strokeWidth=4;" parent="1oh20K-x0vfG2mxByIJu-2" vertex="1">
          <mxGeometry x="255.9060000000004" y="0.03999999999996362" width="275.6" height="59.02" as="geometry" />
        </mxCell>
        <mxCell id="1oh20K-x0vfG2mxByIJu-27" value="&lt;i&gt;Название&lt;br&gt;&lt;br&gt;Тип&lt;br&gt;&lt;/i&gt;" style="rounded=0;whiteSpace=wrap;html=1;fillColor=none;fontFamily=Times New Roman;fontSize=12;container=0;strokeWidth=4;" parent="1oh20K-x0vfG2mxByIJu-2" vertex="1">
          <mxGeometry x="256.00599999999986" y="59.049999999999955" width="275.5" height="98.43" as="geometry" />
        </mxCell>
        <mxCell id="1oh20K-x0vfG2mxByIJu-28" value="&lt;i&gt;СПЕЦ, гр. ХХХХХХ&lt;br&gt;&lt;/i&gt;" style="rounded=0;whiteSpace=wrap;html=1;fillColor=none;fontFamily=Times New Roman;fontSize=12;container=0;strokeWidth=4;" parent="1oh20K-x0vfG2mxByIJu-2" vertex="1">
          <mxGeometry x="531.4860000000003" y="157.5200000000002" width="196.86" height="59.02" as="geometry" />
        </mxCell>
        <mxCell id="1oh20K-x0vfG2mxByIJu-29" value="&lt;i&gt;Лит.&lt;br&gt;&lt;/i&gt;" style="rounded=0;whiteSpace=wrap;html=1;fillColor=none;fontFamily=Times New Roman;fontSize=12;container=0;strokeWidth=4;" parent="1oh20K-x0vfG2mxByIJu-2" vertex="1">
          <mxGeometry x="531.596" y="59.049999999999955" width="58.96" height="19.69" as="geometry" />
        </mxCell>
        <mxCell id="1oh20K-x0vfG2mxByIJu-30" value="&lt;i&gt;Т&lt;br&gt;&lt;/i&gt;" style="rounded=0;whiteSpace=wrap;html=1;fillColor=none;fontFamily=Times New Roman;fontSize=12;container=0;strokeWidth=4;" parent="1oh20K-x0vfG2mxByIJu-2" vertex="1">
          <mxGeometry x="551.2660000000001" y="78.72000000000003" width="19.61" height="59.08" as="geometry" />
        </mxCell>
        <mxCell id="1oh20K-x0vfG2mxByIJu-31" value="&lt;i&gt;Масса&lt;br&gt;&lt;/i&gt;" style="rounded=0;whiteSpace=wrap;html=1;fillColor=none;fontFamily=Times New Roman;fontSize=12;container=0;strokeWidth=4;" parent="1oh20K-x0vfG2mxByIJu-2" vertex="1">
          <mxGeometry x="590.5459999999998" y="59.08999999999992" width="66.94" height="19.69" as="geometry" />
        </mxCell>
        <mxCell id="1oh20K-x0vfG2mxByIJu-32" value="&lt;i&gt;Масштаб&lt;br&gt;&lt;/i&gt;" style="rounded=0;whiteSpace=wrap;html=1;fillColor=none;fontFamily=Times New Roman;fontSize=12;container=0;strokeWidth=4;" parent="1oh20K-x0vfG2mxByIJu-2" vertex="1">
          <mxGeometry x="657.4760000000001" y="59.02999999999997" width="70.88" height="19.69" as="geometry" />
        </mxCell>
        <mxCell id="1oh20K-x0vfG2mxByIJu-33" value="" style="rounded=0;whiteSpace=wrap;html=1;fillColor=none;container=0;strokeWidth=4;" parent="1oh20K-x0vfG2mxByIJu-2" vertex="1">
          <mxGeometry x="0.09599999999954889" y="98.44100000000049" width="255.905" height="19.685" as="geometry" />
        </mxCell>
        <mxCell id="1oh20K-x0vfG2mxByIJu-34" value="" style="rounded=0;whiteSpace=wrap;html=1;fillColor=none;container=0;strokeWidth=4;" parent="1oh20K-x0vfG2mxByIJu-2" vertex="1">
          <mxGeometry x="0.0979999999995016" y="19.69300000000044" width="255.905" height="19.685" as="geometry" />
        </mxCell>
        <mxCell id="1oh20K-x0vfG2mxByIJu-35" value="" style="rounded=0;whiteSpace=wrap;html=1;fillColor=none;container=0;strokeWidth=4;" parent="1oh20K-x0vfG2mxByIJu-2" vertex="1">
          <mxGeometry x="0.09499999999979991" y="39.38000000000034" width="255.905" height="19.685" as="geometry" />
        </mxCell>
        <mxCell id="1oh20K-x0vfG2mxByIJu-36" value="" style="rounded=0;whiteSpace=wrap;html=1;fillColor=none;container=0;strokeWidth=4;" parent="1oh20K-x0vfG2mxByIJu-2" vertex="1">
          <mxGeometry x="0.01199999999926149" y="59.06700000000046" width="255.905" height="19.685" as="geometry" />
        </mxCell>
        <mxCell id="1oh20K-x0vfG2mxByIJu-37" value="" style="rounded=0;whiteSpace=wrap;html=1;fillColor=none;container=0;strokeWidth=4;" parent="1oh20K-x0vfG2mxByIJu-2" vertex="1">
          <mxGeometry x="0.008999999999559805" y="78.75400000000059" width="255.905" height="19.685" as="geometry" />
        </mxCell>
        <mxCell id="1oh20K-x0vfG2mxByIJu-38" value="" style="rounded=0;whiteSpace=wrap;html=1;fillColor=none;container=0;strokeWidth=4;" parent="1oh20K-x0vfG2mxByIJu-2" vertex="1">
          <mxGeometry x="0.09299999999939246" y="118.12800000000038" width="255.905" height="19.685" as="geometry" />
        </mxCell>
        <mxCell id="1oh20K-x0vfG2mxByIJu-39" value="" style="rounded=0;whiteSpace=wrap;html=1;fillColor=none;container=0;strokeWidth=4;" parent="1oh20K-x0vfG2mxByIJu-2" vertex="1">
          <mxGeometry x="0.08999999999969077" y="137.81500000000028" width="255.905" height="19.685" as="geometry" />
        </mxCell>
        <mxCell id="1oh20K-x0vfG2mxByIJu-40" value="" style="rounded=0;whiteSpace=wrap;html=1;fillColor=none;container=0;strokeWidth=4;" parent="1oh20K-x0vfG2mxByIJu-2" vertex="1">
          <mxGeometry x="0.08699999999953434" y="157.50200000000018" width="255.905" height="19.685" as="geometry" />
        </mxCell>
        <mxCell id="1oh20K-x0vfG2mxByIJu-41" value="" style="rounded=0;whiteSpace=wrap;html=1;fillColor=none;container=0;strokeWidth=4;" parent="1oh20K-x0vfG2mxByIJu-2" vertex="1">
          <mxGeometry x="0.0839999999993779" y="177.18900000000008" width="255.905" height="19.685" as="geometry" />
        </mxCell>
        <mxCell id="1oh20K-x0vfG2mxByIJu-42" value="" style="rounded=0;whiteSpace=wrap;html=1;fillColor=none;container=0;strokeWidth=4;" parent="1oh20K-x0vfG2mxByIJu-2" vertex="1">
          <mxGeometry x="0.01099999999951251" y="196.87600000000043" width="255.905" height="19.685" as="geometry" />
        </mxCell>
        <mxCell id="1oh20K-x0vfG2mxByIJu-43" value="&lt;i style=&quot;font-size: 12px;&quot;&gt;&lt;font style=&quot;font-size: 12px;&quot;&gt;Изм.&lt;/font&gt;&lt;/i&gt;" style="rounded=0;whiteSpace=wrap;html=1;fillColor=none;fontFamily=Times New Roman;fontSize=12;container=0;strokeWidth=4;" parent="1oh20K-x0vfG2mxByIJu-2" vertex="1">
          <mxGeometry x="0.09600000000000364" y="78.7610000000011" width="27.65" height="19.68" as="geometry" />
        </mxCell>
        <mxCell id="1oh20K-x0vfG2mxByIJu-44" value="&lt;i&gt;Л.&lt;/i&gt;" style="rounded=0;whiteSpace=wrap;html=1;fillColor=none;fontFamily=Times New Roman;fontSize=12;container=0;strokeWidth=4;" parent="1oh20K-x0vfG2mxByIJu-2" vertex="1">
          <mxGeometry x="27.576000000000022" y="78.75999999999999" width="39.36" height="19.68" as="geometry" />
        </mxCell>
        <mxCell id="1oh20K-x0vfG2mxByIJu-45" value="&lt;i&gt;№ докум.&lt;/i&gt;" style="rounded=0;whiteSpace=wrap;html=1;fillColor=none;fontFamily=Times New Roman;fontSize=12;container=0;strokeWidth=4;" parent="1oh20K-x0vfG2mxByIJu-2" vertex="1">
          <mxGeometry x="66.93600000000015" y="78.75999999999999" width="90.55" height="19.68" as="geometry" />
        </mxCell>
        <mxCell id="1oh20K-x0vfG2mxByIJu-46" value="&lt;i&gt;Подп.&lt;/i&gt;" style="rounded=0;whiteSpace=wrap;html=1;fillColor=none;fontFamily=Times New Roman;fontSize=12;container=0;strokeWidth=4;" parent="1oh20K-x0vfG2mxByIJu-2" vertex="1">
          <mxGeometry x="157.4960000000001" y="78.75999999999999" width="59.05" height="19.68" as="geometry" />
        </mxCell>
        <mxCell id="1oh20K-x0vfG2mxByIJu-47" value="&lt;i&gt;Дата&lt;/i&gt;" style="rounded=0;whiteSpace=wrap;html=1;fillColor=none;fontFamily=Times New Roman;fontSize=12;container=0;strokeWidth=4;" parent="1oh20K-x0vfG2mxByIJu-2" vertex="1">
          <mxGeometry x="216.55600000000004" y="78.73000000000025" width="39.36" height="19.68" as="geometry" />
        </mxCell>
        <mxCell id="1oh20K-x0vfG2mxByIJu-48" value="&lt;i&gt;Разраб.&lt;/i&gt;" style="rounded=0;whiteSpace=wrap;html=1;fillColor=none;fontFamily=Times New Roman;fontSize=12;container=0;strokeWidth=4;" parent="1oh20K-x0vfG2mxByIJu-2" vertex="1">
          <mxGeometry x="0.09600000000000364" y="98.45000000000005" width="66.84" height="19.68" as="geometry" />
        </mxCell>
        <mxCell id="1oh20K-x0vfG2mxByIJu-49" value="&lt;i&gt;Пров.&lt;/i&gt;" style="rounded=0;whiteSpace=wrap;html=1;fillColor=none;fontFamily=Times New Roman;fontSize=12;container=0;strokeWidth=4;" parent="1oh20K-x0vfG2mxByIJu-2" vertex="1">
          <mxGeometry x="0.003000000000156433" y="118.12700000000018" width="66.84" height="19.68" as="geometry" />
        </mxCell>
        <mxCell id="1oh20K-x0vfG2mxByIJu-50" value="&lt;i&gt;Т. контр.&lt;/i&gt;" style="rounded=0;whiteSpace=wrap;html=1;fillColor=none;fontFamily=Times New Roman;fontSize=12;container=0;strokeWidth=4;" parent="1oh20K-x0vfG2mxByIJu-2" vertex="1">
          <mxGeometry y="137.8240000000003" width="66.84" height="19.68" as="geometry" />
        </mxCell>
        <mxCell id="1oh20K-x0vfG2mxByIJu-51" value="&lt;i&gt;Реценз.&lt;/i&gt;" style="rounded=0;whiteSpace=wrap;html=1;fillColor=none;fontFamily=Times New Roman;fontSize=12;container=0;strokeWidth=4;" parent="1oh20K-x0vfG2mxByIJu-2" vertex="1">
          <mxGeometry x="0.1069999999999709" y="157.50099999999998" width="66.84" height="19.68" as="geometry" />
        </mxCell>
        <mxCell id="1oh20K-x0vfG2mxByIJu-52" value="&lt;i&gt;Н. контр.&lt;/i&gt;" style="rounded=0;whiteSpace=wrap;html=1;fillColor=none;fontFamily=Times New Roman;fontSize=12;container=0;strokeWidth=4;" parent="1oh20K-x0vfG2mxByIJu-2" vertex="1">
          <mxGeometry x="0.10399999999981446" y="177.1780000000001" width="66.84" height="19.68" as="geometry" />
        </mxCell>
        <mxCell id="1oh20K-x0vfG2mxByIJu-53" value="&lt;i&gt;Утв.&lt;/i&gt;" style="rounded=0;whiteSpace=wrap;html=1;fillColor=none;fontFamily=Times New Roman;fontSize=12;container=0;strokeWidth=4;" parent="1oh20K-x0vfG2mxByIJu-2" vertex="1">
          <mxGeometry x="0.11099999999987631" y="196.85500000000025" width="66.84" height="19.68" as="geometry" />
        </mxCell>
        <mxCell id="1oh20K-x0vfG2mxByIJu-54" value="&lt;i&gt;Студент&lt;/i&gt;" style="rounded=0;whiteSpace=wrap;html=1;fillColor=none;fontFamily=Times New Roman;fontSize=12;container=0;strokeWidth=4;" parent="1oh20K-x0vfG2mxByIJu-2" vertex="1">
          <mxGeometry x="66.83599999999979" y="98.44000000000028" width="90.65" height="19.68" as="geometry" />
        </mxCell>
        <mxCell id="1oh20K-x0vfG2mxByIJu-55" value="&lt;i&gt;Руководитель&lt;/i&gt;" style="rounded=0;whiteSpace=wrap;html=1;fillColor=none;fontFamily=Times New Roman;fontSize=12;container=0;strokeWidth=4;" parent="1oh20K-x0vfG2mxByIJu-2" vertex="1">
          <mxGeometry x="66.95299999999997" y="118.12700000000018" width="90.65" height="19.68" as="geometry" />
        </mxCell>
        <mxCell id="1oh20K-x0vfG2mxByIJu-56" value="&lt;i&gt;Консультант&lt;/i&gt;" style="rounded=0;whiteSpace=wrap;html=1;fillColor=none;fontFamily=Times New Roman;fontSize=12;container=0;strokeWidth=4;" parent="1oh20K-x0vfG2mxByIJu-2" vertex="1">
          <mxGeometry x="66.95000000000027" y="137.81400000000008" width="90.65" height="19.68" as="geometry" />
        </mxCell>
        <mxCell id="1oh20K-x0vfG2mxByIJu-57" value="&lt;i&gt;Рецензент&lt;/i&gt;" style="rounded=0;whiteSpace=wrap;html=1;fillColor=none;fontFamily=Times New Roman;fontSize=12;container=0;strokeWidth=4;" parent="1oh20K-x0vfG2mxByIJu-2" vertex="1">
          <mxGeometry x="66.95699999999988" y="157.52099999999996" width="90.65" height="19.68" as="geometry" />
        </mxCell>
        <mxCell id="1oh20K-x0vfG2mxByIJu-58" value="&lt;i&gt;Нормоконтр&lt;/i&gt;" style="rounded=0;whiteSpace=wrap;html=1;fillColor=none;fontFamily=Times New Roman;fontSize=12;container=0;strokeWidth=4;" parent="1oh20K-x0vfG2mxByIJu-2" vertex="1">
          <mxGeometry x="66.95400000000018" y="177.1780000000001" width="90.65" height="19.68" as="geometry" />
        </mxCell>
        <mxCell id="1oh20K-x0vfG2mxByIJu-59" value="&lt;i&gt;Зав. каф.&lt;/i&gt;" style="rounded=0;whiteSpace=wrap;html=1;fillColor=none;fontFamily=Times New Roman;fontSize=12;container=0;strokeWidth=4;" parent="1oh20K-x0vfG2mxByIJu-2" vertex="1">
          <mxGeometry x="66.96099999999979" y="196.85500000000025" width="90.65" height="19.68" as="geometry" />
        </mxCell>
        <mxCell id="qMLAu4tH9wQoNu0Lw2o5-3" value="&lt;i&gt;Лист&lt;br&gt;&lt;/i&gt;" style="rounded=0;whiteSpace=wrap;html=1;fillColor=none;fontFamily=Times New Roman;fontSize=12;container=0;strokeWidth=4;" vertex="1" parent="1oh20K-x0vfG2mxByIJu-2">
          <mxGeometry x="531.53" y="137.84" width="78.7" height="19.69" as="geometry" />
        </mxCell>
        <mxCell id="qMLAu4tH9wQoNu0Lw2o5-4" value="&lt;i&gt;Листов&lt;br&gt;&lt;/i&gt;" style="rounded=0;whiteSpace=wrap;html=1;fillColor=none;fontFamily=Times New Roman;fontSize=12;container=0;strokeWidth=4;" vertex="1" parent="1oh20K-x0vfG2mxByIJu-2">
          <mxGeometry x="610.23" y="137.79" width="118.12" height="19.69" as="geometry" />
        </mxCell>
      </root>
    </mxGraphModel>
  </diagram>
</mxfile>
